<?xml version="1.0"?>

<svg version="1.1" id="Layer_1" xmlns="http://www.w3.org/2000/svg" xmlns:xlink="http://www.w3.org/1999/xlink" x="0px" y="0px" viewBox="0 0 157.4 59.5" style="enable-background:new 0 0 157.4 59.5;" xml:space="preserve">

<g>
&#x9;<g>
&#x9;&#x9;<path class="st0" d="M2.9,24.2c0-6.4,4.9-11.3,11.4-11.3c6,0,9.7,3.8,10.5,7.1l-5.2,1.5c-0.5-1.8-2.5-3.6-5.3-3.6&#xA;&#x9;&#x9;&#x9;c-3.6,0-5.9,2.9-5.9,6.3c0,3.4,2.3,6.4,5.9,6.4c2.8,0,4.8-1.7,5.3-3.4l5.2,1.4c-0.9,3.3-4.6,7-10.5,7C7.8,35.7,2.9,30.7,2.9,24.2z&#xA;&#x9;&#x9;&#x9;"></path>
&#x9;&#x9;<path class="st0" d="M26.2,24.3c0-6.6,4.7-11.4,10.7-11.4c3,0,5.4,1.2,6.9,3.2v-2.6h5.7v21.5h-5.7v-2.6c-1.5,2-3.9,3.2-6.9,3.2&#xA;&#x9;&#x9;&#x9;C30.8,35.7,26.2,30.8,26.2,24.3z M43.9,24.2c0-3.7-2.7-6.3-6.1-6.3c-3.5,0-6.1,2.6-6.1,6.3c0,3.7,2.5,6.4,6.1,6.4&#xA;&#x9;&#x9;&#x9;C41.2,30.6,43.9,28,43.9,24.2z"></path>
&#x9;&#x9;<path class="st0" d="M75.4,4v31.1h-5.7v-2.6c-1.5,2-3.9,3.2-6.9,3.2c-6,0-10.7-4.8-10.7-11.4c0-6.6,4.7-11.4,10.7-11.4&#xA;&#x9;&#x9;&#x9;c3,0,5.4,1.2,6.9,3.2V4H75.4z M69.9,24.2c0-3.7-2.7-6.3-6.1-6.3c-3.5,0-6.1,2.6-6.1,6.3c0,3.7,2.5,6.4,6.1,6.4&#xA;&#x9;&#x9;&#x9;C67.2,30.6,69.9,28,69.9,24.2z"></path>
&#x9;&#x9;<path class="st0" d="M101.4,4v31.1h-5.7v-2.6c-1.5,2-3.9,3.2-6.9,3.2c-6,0-10.7-4.8-10.7-11.4c0-6.6,4.7-11.4,10.7-11.4&#xA;&#x9;&#x9;&#x9;c3,0,5.4,1.2,6.9,3.2V4H101.4z M95.9,24.2c0-3.7-2.7-6.3-6.1-6.3c-3.5,0-6.1,2.6-6.1,6.3c0,3.7,2.5,6.4,6.1,6.4&#xA;&#x9;&#x9;&#x9;C93.2,30.6,95.9,28,95.9,24.2z"></path>
&#x9;&#x9;<path class="st0" d="M104.9,7.2c0-1.8,1.5-3.2,3.4-3.2c1.9,0,3.4,1.4,3.4,3.2c0,1.9-1.5,3.3-3.4,3.3&#xA;&#x9;&#x9;&#x9;C106.4,10.5,104.9,9.1,104.9,7.2z M105.4,13.5h5.7v21.5h-5.7V13.5z"></path>
&#x9;&#x9;<path class="st0" d="M113.9,24.3c0-6.4,4.5-11.4,11.3-11.4c7.1,0,11.1,4.9,11.1,11.1c0,0.7,0,1.3-0.1,2h-16.7&#xA;&#x9;&#x9;&#x9;c0.4,2.8,2.3,4.9,6.3,4.9c2.7,0,4.4-1.2,5.2-2.8l5.1,1.5c-1.2,2.8-4.7,6.1-10.4,6.1C118.7,35.7,113.9,31.1,113.9,24.3z&#xA;&#x9;&#x9;&#x9; M130.8,22.5c-0.3-2.6-2.3-4.8-5.7-4.8c-3.3,0-5.4,2.3-5.7,4.8H130.8z"></path>
&#x9;</g>
&#x9;<g>
&#x9;&#x9;<path class="st0" d="M22.9,51.6V54h-0.6v-2.3c0-0.7-0.3-1.2-1-1.2c-0.7,0-1.1,0.5-1.1,1.3V54h-0.6v-2.3c0-0.7-0.3-1.2-1-1.2&#xA;&#x9;&#x9;&#x9;c-0.7,0-1.2,0.6-1.2,1.4v2h-0.6v-3.9h0.6v0.6c0.3-0.4,0.7-0.7,1.3-0.7c0.6,0,1,0.3,1.3,0.8c0.2-0.4,0.7-0.8,1.4-0.8&#xA;&#x9;&#x9;&#x9;C22.3,50,22.9,50.6,22.9,51.6z"></path>
&#x9;&#x9;<path class="st0" d="M24.1,52c0-1.2,0.8-2,2-2c0.7,0,1.2,0.3,1.6,0.8v-0.7h0.6V54h-0.6v-0.7c-0.3,0.5-0.8,0.8-1.6,0.8&#xA;&#x9;&#x9;&#x9;C24.9,54.1,24.1,53.2,24.1,52z M27.6,52c0-0.9-0.7-1.5-1.5-1.5c-0.9,0-1.5,0.6-1.5,1.5c0,0.9,0.6,1.5,1.5,1.5&#xA;&#x9;&#x9;&#x9;C26.9,53.5,27.6,52.9,27.6,52z"></path>
&#x9;&#x9;<path class="st0" d="M29.3,52.9l0.6-0.2c0.1,0.5,0.6,0.8,1.2,0.8c0.6,0,1-0.3,1-0.6c0-0.3-0.2-0.4-0.6-0.6L30.4,52&#xA;&#x9;&#x9;&#x9;c-0.5-0.1-0.9-0.4-0.9-0.9c0-0.6,0.6-1.1,1.4-1.1c0.8,0,1.4,0.4,1.7,1l-0.5,0.2c-0.1-0.3-0.5-0.6-1.1-0.6c-0.5,0-0.8,0.3-0.8,0.6&#xA;&#x9;&#x9;&#x9;c0,0.3,0.2,0.4,0.5,0.5l1.1,0.3c0.5,0.2,1,0.4,1,1c0,0.7-0.7,1.2-1.6,1.2C30.2,54.1,29.5,53.6,29.3,52.9z"></path>
&#x9;&#x9;<path class="st0" d="M36.2,53.9C36,54,35.7,54,35.4,54c-0.8,0-1.1-0.5-1.1-1.2v-2.2h-0.8v-0.5h0.8v-1.3h0.6v1.3h1.3v0.5h-1.3v2.2&#xA;&#x9;&#x9;&#x9;c0,0.4,0.2,0.7,0.6,0.7c0.2,0,0.4,0,0.6-0.1L36.2,53.9z"></path>
&#x9;&#x9;<path class="st0" d="M37,52c0-1.2,0.8-2,2-2c1.2,0,2,0.9,2,2c0,0.1,0,0.2,0,0.3h-3.3c0.1,0.8,0.6,1.3,1.5,1.3&#xA;&#x9;&#x9;&#x9;c0.7,0,1.1-0.4,1.3-0.8l0.6,0.2c-0.3,0.6-0.9,1.1-1.9,1.1C37.8,54.1,37,53.3,37,52z M40.3,51.8c-0.1-0.7-0.5-1.2-1.4-1.2&#xA;&#x9;&#x9;&#x9;c-0.8,0-1.3,0.6-1.4,1.3L40.3,51.8z"></path>
&#x9;&#x9;<path class="st0" d="M44.2,50v0.6c-0.8-0.1-1.4,0.3-1.4,1.6V54h-0.6v-3.9h0.6v0.7C43,50.2,43.5,49.9,44.2,50z"></path>
&#x9;&#x9;<path class="st0" d="M45.2,48.9c0-0.2,0.2-0.4,0.4-0.4c0.2,0,0.4,0.2,0.4,0.4c0,0.2-0.2,0.4-0.4,0.4&#xA;&#x9;&#x9;&#x9;C45.3,49.3,45.2,49.2,45.2,48.9z M45.3,50.1h0.6V54h-0.6V50.1z"></path>
&#x9;&#x9;<path class="st0" d="M51,51.7V54h-0.6v-2.2c0-0.8-0.4-1.2-1.1-1.2c-0.8,0-1.3,0.6-1.3,1.5v2h-0.6v-3.9H48v0.7&#xA;&#x9;&#x9;&#x9;c0.3-0.4,0.8-0.8,1.5-0.8C50.4,50,51,50.6,51,51.7z"></path>
&#x9;&#x9;<path class="st0" d="M56.4,50.1v3.8c0,1.1-0.8,1.9-1.9,1.9c-0.9,0-1.5-0.4-1.9-1l0.5-0.2c0.3,0.4,0.7,0.7,1.3,0.7&#xA;&#x9;&#x9;&#x9;c0.8,0,1.3-0.6,1.3-1.4v-0.7c-0.3,0.5-0.9,0.8-1.5,0.8c-1.1,0-2-0.9-2-2c0-1.1,0.8-2,2-2c0.7,0,1.2,0.3,1.5,0.7v-0.6L56.4,50.1&#xA;&#x9;&#x9;&#x9;L56.4,50.1z M55.8,52c0-0.8-0.6-1.4-1.5-1.4c-0.9,0-1.5,0.6-1.5,1.4c0,0.8,0.6,1.4,1.5,1.4C55.1,53.4,55.8,52.8,55.8,52z"></path>
&#x9;&#x9;<path class="st0" d="M64.1,48.3V54h-0.6v-0.7c-0.3,0.5-0.8,0.8-1.6,0.8c-1.1,0-2-0.9-2-2.1c0-1.2,0.8-2,2-2c0.7,0,1.2,0.3,1.6,0.8&#xA;&#x9;&#x9;&#x9;v-2.5C63.5,48.3,64.1,48.3,64.1,48.3z M63.5,52c0-0.9-0.7-1.5-1.5-1.5c-0.9,0-1.5,0.6-1.5,1.5c0,0.9,0.6,1.5,1.5,1.5&#xA;&#x9;&#x9;&#x9;C62.8,53.5,63.5,52.9,63.5,52z"></path>
&#x9;&#x9;<path class="st0" d="M65.5,48.9c0-0.2,0.2-0.4,0.4-0.4c0.2,0,0.4,0.2,0.4,0.4c0,0.2-0.2,0.4-0.4,0.4S65.5,49.2,65.5,48.9z&#xA;&#x9;&#x9;&#x9; M65.6,50.1h0.6V54h-0.6V50.1z"></path>
&#x9;&#x9;<path class="st0" d="M71.6,50.1v3.8c0,1.1-0.8,1.9-1.9,1.9c-0.9,0-1.5-0.4-1.9-1l0.5-0.2c0.3,0.4,0.7,0.7,1.3,0.7&#xA;&#x9;&#x9;&#x9;c0.8,0,1.3-0.6,1.3-1.4v-0.7c-0.3,0.5-0.9,0.8-1.5,0.8c-1.1,0-2-0.9-2-2c0-1.1,0.8-2,2-2c0.7,0,1.2,0.3,1.5,0.7v-0.6L71.6,50.1&#xA;&#x9;&#x9;&#x9;L71.6,50.1z M71,52c0-0.8-0.6-1.4-1.5-1.4c-0.9,0-1.5,0.6-1.5,1.4c0,0.8,0.6,1.4,1.5,1.4C70.3,53.4,71,52.8,71,52z"></path>
&#x9;&#x9;<path class="st0" d="M73,48.9c0-0.2,0.2-0.4,0.4-0.4c0.2,0,0.4,0.2,0.4,0.4c0,0.2-0.2,0.4-0.4,0.4S73,49.2,73,48.9z M73.1,50.1&#xA;&#x9;&#x9;&#x9;h0.6V54h-0.6V50.1z"></path>
&#x9;&#x9;<path class="st0" d="M77.6,53.9C77.3,54,77,54,76.7,54c-0.8,0-1.1-0.5-1.1-1.2v-2.2h-0.8v-0.5h0.8v-1.3h0.6v1.3h1.3v0.5h-1.3v2.2&#xA;&#x9;&#x9;&#x9;c0,0.4,0.2,0.7,0.6,0.7c0.2,0,0.4,0,0.6-0.1L77.6,53.9z"></path>
&#x9;&#x9;<path class="st0" d="M78.3,52c0-1.2,0.8-2,2-2c0.7,0,1.2,0.3,1.6,0.8v-0.7h0.6V54h-0.6v-0.7c-0.3,0.5-0.8,0.8-1.6,0.8&#xA;&#x9;&#x9;&#x9;C79.1,54.1,78.3,53.2,78.3,52z M81.8,52c0-0.9-0.7-1.5-1.5-1.5c-0.9,0-1.5,0.6-1.5,1.5c0,0.9,0.6,1.5,1.5,1.5&#xA;&#x9;&#x9;&#x9;C81.1,53.5,81.8,52.9,81.8,52z"></path>
&#x9;&#x9;<path class="st0" d="M83.9,48.3h0.6V54h-0.6V48.3z"></path>
&#x9;&#x9;<path class="st0" d="M90.6,53.9C90.4,54,90.1,54,89.8,54c-0.8,0-1.1-0.5-1.1-1.2v-2.2h-0.8v-0.5h0.8v-1.3h0.6v1.3h1.3v0.5h-1.3&#xA;&#x9;&#x9;&#x9;v2.2c0,0.4,0.2,0.7,0.6,0.7c0.2,0,0.4,0,0.6-0.1L90.6,53.9z"></path>
&#x9;&#x9;<path class="st0" d="M91.4,52c0-1.2,0.9-2,2.1-2s2.1,0.9,2.1,2c0,1.2-0.9,2.1-2.1,2.1C92.2,54.1,91.4,53.2,91.4,52z M94.9,52&#xA;&#x9;&#x9;&#x9;c0-0.9-0.6-1.5-1.5-1.5c-0.8,0-1.5,0.6-1.5,1.5s0.6,1.5,1.5,1.5C94.3,53.5,94.9,52.9,94.9,52z"></path>
&#x9;&#x9;<path class="st0" d="M100.6,50.1v3.8c0,1.1-0.8,1.9-1.9,1.9c-0.9,0-1.5-0.4-1.9-1l0.5-0.2c0.3,0.4,0.7,0.7,1.3,0.7&#xA;&#x9;&#x9;&#x9;c0.8,0,1.3-0.6,1.3-1.4v-0.7c-0.3,0.5-0.9,0.8-1.5,0.8c-1.1,0-2-0.9-2-2c0-1.1,0.8-2,2-2c0.7,0,1.2,0.3,1.5,0.7v-0.6L100.6,50.1&#xA;&#x9;&#x9;&#x9;L100.6,50.1z M100,52c0-0.8-0.6-1.4-1.5-1.4c-0.9,0-1.5,0.6-1.5,1.4c0,0.8,0.6,1.4,1.5,1.4C99.4,53.4,100,52.8,100,52z"></path>
&#x9;&#x9;<path class="st0" d="M101.8,52c0-1.2,0.8-2,2-2c1.2,0,2,0.9,2,2c0,0.1,0,0.2,0,0.3h-3.3c0.1,0.8,0.6,1.3,1.5,1.3&#xA;&#x9;&#x9;&#x9;c0.7,0,1.1-0.4,1.3-0.8l0.6,0.2c-0.3,0.6-0.9,1.1-1.9,1.1C102.7,54.1,101.8,53.3,101.8,52z M105.2,51.8c-0.1-0.7-0.5-1.2-1.4-1.2&#xA;&#x9;&#x9;&#x9;c-0.8,0-1.3,0.6-1.4,1.3L105.2,51.8z"></path>
&#x9;&#x9;<path class="st0" d="M109.2,53.9c-0.3,0.1-0.5,0.2-0.8,0.2c-0.8,0-1.1-0.5-1.1-1.2v-2.2h-0.8v-0.5h0.8v-1.3h0.6v1.3h1.3v0.5h-1.3&#xA;&#x9;&#x9;&#x9;v2.2c0,0.4,0.2,0.7,0.6,0.7c0.2,0,0.4,0,0.6-0.1L109.2,53.9z"></path>
&#x9;&#x9;<path class="st0" d="M114.1,51.7V54h-0.6v-2.2c0-0.8-0.4-1.2-1.1-1.2c-0.8,0-1.3,0.6-1.3,1.5v2h-0.6v-5.7h0.6v2.5&#xA;&#x9;&#x9;&#x9;c0.3-0.4,0.8-0.8,1.5-0.8C113.5,50,114.1,50.6,114.1,51.7z"></path>
&#x9;&#x9;<path class="st0" d="M115.3,52c0-1.2,0.8-2,2-2c1.2,0,2,0.9,2,2c0,0.1,0,0.2,0,0.3h-3.3c0.1,0.8,0.6,1.3,1.5,1.3&#xA;&#x9;&#x9;&#x9;c0.7,0,1.1-0.4,1.3-0.8l0.6,0.2c-0.3,0.6-0.9,1.1-1.9,1.1C116.1,54.1,115.3,53.3,115.3,52z M118.6,51.8c-0.1-0.7-0.5-1.2-1.4-1.2&#xA;&#x9;&#x9;&#x9;c-0.8,0-1.3,0.6-1.4,1.3L118.6,51.8z"></path>
&#x9;&#x9;<path class="st0" d="M122.5,50v0.6c-0.8-0.1-1.4,0.3-1.4,1.6V54h-0.6v-3.9h0.6v0.7C121.3,50.2,121.8,49.9,122.5,50z"></path>
&#x9;</g>
&#x9;<path class="st0" d="M137.2,12.2c0-4.7,3.7-8.3,8.4-8.3c4.8,0,8.4,3.6,8.4,8.3c0,4.7-3.6,8.4-8.4,8.4&#xA;&#x9;&#x9;C140.8,20.5,137.2,16.9,137.2,12.2z M152.2,12.2c0-3.8-2.9-6.6-6.7-6.6s-6.7,2.8-6.7,6.6c0,3.8,2.9,6.7,6.7,6.7&#xA;&#x9;&#x9;C149.3,18.8,152.2,16,152.2,12.2z M141.3,12.2c0-2.4,1.8-4.3,4.3-4.3c2.3,0,3.7,1.4,4,2.7l-1.7,0.4c-0.2-0.7-1.1-1.5-2.3-1.5&#xA;&#x9;&#x9;c-1.5,0-2.5,1.2-2.5,2.6c0,1.4,1,2.6,2.5,2.6c1.2,0,2-0.7,2.3-1.5l1.7,0.5c-0.3,1.3-1.7,2.7-4,2.7&#xA;&#x9;&#x9;C143.2,16.5,141.3,14.7,141.3,12.2z"></path>
</g>
</svg>