<svg xmlns="http://www.w3.org/2000/svg" viewBox="0 0 512 512"><g><circle cx="426.1" cy="281.7" r="20" fill="rgb(26,153,232)"/><circle cx="415.0" cy="321.7" r="13" fill="rgb(26,155,228)"/><circle cx="394.6" cy="357.8" r="24" fill="rgb(27,159,221)"/><circle cx="366.3" cy="388.0" r="9" fill="rgb(27,163,210)"/><circle cx="331.5" cy="410.6" r="17" fill="rgb(28,169,197)"/><circle cx="292.3" cy="424.1" r="26" fill="rgb(28,176,182)"/><circle cx="251.0" cy="427.9" r="11" fill="rgb(29,183,166)"/><circle cx="210.0" cy="421.7" r="21" fill="rgb(29,190,151)"/><circle cx="171.7" cy="405.9" r="15" fill="rgb(30,196,136)"/><circle cx="138.2" cy="381.4" r="7" fill="rgb(30,202,123)"/><circle cx="111.7" cy="349.5" r="23" fill="rgb(30,206,113)"/><circle cx="93.5" cy="312.3" r="18" fill="rgb(31,209,106)"/><circle cx="84.7" cy="271.7" r="20" fill="rgb(31,211,103)"/><circle cx="85.9" cy="230.3" r="13" fill="rgb(31,211,104)"/><circle cx="97.0" cy="190.3" r="24" fill="rgb(31,209,108)"/><circle cx="117.4" cy="154.2" r="9" fill="rgb(30,205,115)"/><circle cx="145.7" cy="124.0" r="17" fill="rgb(30,201,126)"/><circle cx="180.5" cy="101.4" r="26" fill="rgb(29,195,139)"/><circle cx="219.7" cy="87.9" r="11" fill="rgb(29,188,154)"/><circle cx="261.0" cy="84.1" r="21" fill="rgb(28,181,170)"/><circle cx="302.0" cy="90.3" r="15" fill="rgb(28,174,185)"/><circle cx="340.3" cy="106.1" r="7" fill="rgb(27,168,200)"/><circle cx="373.8" cy="130.6" r="23" fill="rgb(27,162,213)"/><circle cx="400.3" cy="162.5" r="18" fill="rgb(27,158,223)"/><circle cx="418.5" cy="199.7" r="20" fill="rgb(26,155,230)"/><circle cx="427.3" cy="240.3" r="13" fill="rgb(26,153,233)"/><circle cx="400.5" cy="296.1" r="7" fill="rgb(27,158,223)"/><circle cx="386.7" cy="329.6" r="10" fill="rgb(27,160,218)"/><circle cx="365.3" cy="358.7" r="5" fill="rgb(27,164,209)"/><circle cx="337.6" cy="381.9" r="8" fill="rgb(27,168,199)"/><circle cx="305.1" cy="397.7" r="6" fill="rgb(28,174,187)"/><circle cx="269.7" cy="405.4" r="9" fill="rgb(28,180,173)"/><circle cx="233.6" cy="404.3" r="7" fill="rgb(29,186,160)"/><circle cx="198.7" cy="394.6" r="10" fill="rgb(29,192,146)"/><circle cx="167.2" cy="376.9" r="5" fill="rgb(30,197,134)"/><circle cx="140.9" cy="352.2" r="8" fill="rgb(30,201,124)"/><circle cx="121.2" cy="321.8" r="6" fill="rgb(30,205,117)"/><circle cx="109.4" cy="287.6" r="9" fill="rgb(30,207,112)"/><circle cx="106.1" cy="251.6" r="7" fill="rgb(30,207,111)"/><circle cx="111.5" cy="215.9" r="10" fill="rgb(30,206,113)"/><circle cx="125.3" cy="182.4" r="5" fill="rgb(30,204,118)"/><circle cx="146.7" cy="153.3" r="8" fill="rgb(30,200,127)"/><circle cx="174.4" cy="130.1" r="6" fill="rgb(30,196,137)"/><circle cx="206.9" cy="114.3" r="9" fill="rgb(29,190,149)"/><circle cx="242.3" cy="106.6" r="7" fill="rgb(29,184,163)"/><circle cx="278.4" cy="107.7" r="10" fill="rgb(28,178,176)"/><circle cx="313.3" cy="117.4" r="5" fill="rgb(28,172,190)"/><circle cx="344.8" cy="135.1" r="8" fill="rgb(27,167,202)"/><circle cx="371.1" cy="159.8" r="6" fill="rgb(27,163,212)"/><circle cx="390.8" cy="190.2" r="9" fill="rgb(27,159,219)"/><circle cx="402.6" cy="224.4" r="7" fill="rgb(27,157,224)"/><circle cx="405.9" cy="260.4" r="10" fill="rgb(27,157,225)"/><circle cx="441.3" cy="319.7" r="5" fill="rgb(26,151,238)"/><circle cx="390.5" cy="398.6" r="3" fill="rgb(27,159,219)"/><circle cx="308.8" cy="444.7" r="6" fill="rgb(28,173,188)"/><circle cx="215.1" cy="447.7" r="4" fill="rgb(29,189,152)"/><circle cx="130.7" cy="406.7" r="5" fill="rgb(30,203,121)"/><circle cx="75.0" cy="331.2" r="3" fill="rgb(31,212,99)"/><circle cx="60.8" cy="238.5" r="6" fill="rgb(31,214,96)"/><circle cx="91.3" cy="149.8" r="4" fill="rgb(31,210,106)"/><circle cx="159.5" cy="85.4" r="5" fill="rgb(30,198,131)"/><circle cx="249.9" cy="60.1" r="3" fill="rgb(29,183,166)"/><circle cx="341.6" cy="79.7" r="6" fill="rgb(27,168,200)"/><circle cx="413.7" cy="139.7" r="4" fill="rgb(26,155,228)"/><circle cx="449.7" cy="226.3" r="5" fill="rgb(26,150,240)"/></g></svg>